<svg xmlns="http://www.w3.org/2000/svg" xmlns:xlink="http://www.w3.org/1999/xlink" width="390" zoomAndPan="magnify"
    viewBox="0 0 292.5 654.749986" height="873" preserveAspectRatio="xMidYMid meet" version="1.0">
    <defs>
        <clipPath id="b827bfb6f4">
            <path d="M 1 3 L 291 3 L 291 653 L 1 653 Z M 1 3 " clip-rule="nonzero" />
        </clipPath>
        <clipPath id="ba34367ddc">
            <path
                d="M 4.796875 653.679688 L -0.00390625 4.558594 L 286.75 2.4375 L 291.550781 651.5625 Z M 4.796875 653.679688 "
                clip-rule="nonzero" />
        </clipPath>
        <clipPath id="1103dd93c8">
            <path
                d="M 4.796875 653.679688 L -0.00390625 4.558594 L 286.75 2.4375 L 291.550781 651.5625 Z M 4.796875 653.679688 "
                clip-rule="nonzero" />
        </clipPath>
        <clipPath id="cfa730a46f">
            <path d="M 31 35 L 258 35 L 258 262 L 31 262 Z M 31 35 " clip-rule="nonzero" />
        </clipPath>
        <clipPath id="243bc50572">
            <path
                d="M 4.796875 653.679688 L -0.00390625 4.558594 L 286.75 2.4375 L 291.550781 651.5625 Z M 4.796875 653.679688 "
                clip-rule="nonzero" />
        </clipPath>
        <clipPath id="7c301f3711">
            <path
                d="M 4.796875 653.679688 L -0.00390625 4.558594 L 286.75 2.4375 L 291.550781 651.5625 Z M 4.796875 653.679688 "
                clip-rule="nonzero" />
        </clipPath>
        <clipPath id="8d8a9f881c">
            <path d="M 1 1 L 291 1 L 291 651 L 1 651 Z M 1 1 " clip-rule="nonzero" />
        </clipPath>
        <clipPath id="22427aa6a0">
            <path
                d="M 4.796875 651.5625 L -0.00390625 2.4375 L 286.75 0.316406 L 291.550781 649.441406 Z M 4.796875 651.5625 "
                clip-rule="nonzero" />
        </clipPath>
        <clipPath id="8918a72a83">
            <path
                d="M 4.796875 651.5625 L -0.00390625 2.4375 L 286.75 0.316406 L 291.550781 649.441406 Z M 4.796875 651.5625 "
                clip-rule="nonzero" />
        </clipPath>
        <clipPath id="242ae7acd3">
            <path d="M 31 33 L 258 33 L 258 260 L 31 260 Z M 31 33 " clip-rule="nonzero" />
        </clipPath>
        <clipPath id="dbf0d4c44e">
            <path
                d="M 4.796875 651.5625 L -0.00390625 2.4375 L 286.75 0.316406 L 291.550781 649.441406 Z M 4.796875 651.5625 "
                clip-rule="nonzero" />
        </clipPath>
        <clipPath id="3534d90e2e">
            <path
                d="M 4.796875 651.5625 L -0.00390625 2.4375 L 286.75 0.316406 L 291.550781 649.441406 Z M 4.796875 651.5625 "
                clip-rule="nonzero" />
        </clipPath>
    </defs>
    <g clip-path="url(#b827bfb6f4)">
        <g clip-path="url(#ba34367ddc)">
            <g clip-path="url(#1103dd93c8)">
                <path fill="#000000"
                    d="M 143.359375 3.617188 C 222.429688 3.03125 287 66.652344 287.582031 145.71875 L 290.265625 508.398438 C 290.847656 587.464844 227.226562 652.035156 148.160156 652.621094 C 69.09375 653.207031 4.523438 589.582031 3.9375 510.515625 L 1.257812 147.835938 C 0.671875 68.769531 64.292969 4.199219 143.359375 3.617188 Z M 143.359375 3.617188 "
                    fill-opacity="1" fill-rule="nonzero" />
            </g>
        </g>
    </g>
    <g clip-path="url(#cfa730a46f)">
        <g clip-path="url(#243bc50572)">
            <g clip-path="url(#7c301f3711)">
                <path fill="#f4f4f4"
                    d="M 143.597656 35.429688 C 206.148438 34.96875 257.230469 85.300781 257.691406 147.847656 C 258.152344 210.402344 207.820312 261.480469 145.269531 261.945312 C 82.722656 262.40625 31.636719 212.074219 31.175781 149.523438 C 30.714844 86.972656 81.046875 35.890625 143.597656 35.429688 Z M 143.597656 35.429688 "
                    fill-opacity="1" fill-rule="nonzero" />
            </g>
        </g>
    </g>
    <g clip-path="url(#8d8a9f881c)">
        <g clip-path="url(#22427aa6a0)">
            <g clip-path="url(#8918a72a83)">
                <path fill="#000000"
                    d="M 143.359375 1.496094 C 222.429688 0.910156 287 64.53125 287.582031 143.597656 L 290.265625 506.277344 C 290.847656 585.347656 227.226562 649.917969 148.160156 650.5 C 69.09375 651.085938 4.523438 587.464844 3.9375 508.394531 L 1.257812 145.714844 C 0.671875 66.648438 64.292969 2.078125 143.359375 1.496094 Z M 143.359375 1.496094 "
                    fill-opacity="1" fill-rule="nonzero" />
            </g>
        </g>
    </g>
    <g clip-path="url(#242ae7acd3)">
        <g clip-path="url(#dbf0d4c44e)">
            <g clip-path="url(#3534d90e2e)">
                <path fill="#f4f4f4"
                    d="M 143.597656 33.308594 C 206.148438 32.847656 257.230469 83.179688 257.691406 145.730469 C 258.152344 208.28125 207.820312 259.363281 145.269531 259.824219 C 82.722656 260.285156 31.636719 209.957031 31.175781 147.402344 C 30.714844 84.855469 81.046875 33.773438 143.597656 33.308594 Z M 143.597656 33.308594 "
                    fill-opacity="1" fill-rule="nonzero" />
            </g>
        </g>
    </g>
</svg>